<mxfile host="app.diagrams.net" modified="2022-05-21T15:26:11.633Z" agent="5.0 (Macintosh; Intel Mac OS X 10_15_7) AppleWebKit/537.36 (KHTML, like Gecko) Chrome/101.0.4951.64 Safari/537.36" etag="0ScusWLoBsA5hgQHkGxH" version="18.1.1" type="github">
  <diagram id="MTFICx_JF3s-7LjDrI5j" name="Page-1">
    <mxGraphModel dx="1957" dy="735" grid="1" gridSize="10" guides="1" tooltips="1" connect="1" arrows="1" fold="1" page="1" pageScale="1" pageWidth="827" pageHeight="1169" math="0" shadow="0">
      <root>
        <mxCell id="0" />
        <mxCell id="1" parent="0" />
        <mxCell id="FJIHUCayccTJmZpPxnte-59" style="edgeStyle=orthogonalEdgeStyle;rounded=0;orthogonalLoop=1;jettySize=auto;html=1;entryX=0.5;entryY=0;entryDx=0;entryDy=0;" edge="1" parent="1" source="FJIHUCayccTJmZpPxnte-26" target="FJIHUCayccTJmZpPxnte-58">
          <mxGeometry relative="1" as="geometry" />
        </mxCell>
        <mxCell id="FJIHUCayccTJmZpPxnte-63" value="【2】写入更新数据的旧值&lt;br&gt;以便回滚需要" style="edgeLabel;html=1;align=center;verticalAlign=middle;resizable=0;points=[];" vertex="1" connectable="0" parent="FJIHUCayccTJmZpPxnte-59">
          <mxGeometry x="0.2235" y="-1" relative="1" as="geometry">
            <mxPoint as="offset" />
          </mxGeometry>
        </mxCell>
        <mxCell id="FJIHUCayccTJmZpPxnte-26" value="InnoDB 存储引擎" style="shape=umlFrame;whiteSpace=wrap;html=1;fillColor=#f8cecc;strokeColor=#b85450;swimlaneFillColor=default;width=135;height=30;" vertex="1" parent="1">
          <mxGeometry x="10" y="2460" width="685" height="260" as="geometry" />
        </mxCell>
        <mxCell id="FJIHUCayccTJmZpPxnte-12" value="Server 层" style="shape=umlFrame;whiteSpace=wrap;html=1;fillColor=#f8cecc;strokeColor=#b85450;swimlaneFillColor=default;width=70;height=30;" vertex="1" parent="1">
          <mxGeometry x="45" y="1960" width="520" height="420" as="geometry" />
        </mxCell>
        <mxCell id="ztKS8xKdU01Fj72BsQWo-20" value="引擎层" style="shape=umlFrame;whiteSpace=wrap;html=1;fillColor=#f8cecc;strokeColor=#b85450;swimlaneFillColor=default;" parent="1" vertex="1">
          <mxGeometry x="169" y="185" width="521" height="425" as="geometry" />
        </mxCell>
        <mxCell id="ztKS8xKdU01Fj72BsQWo-30" value="" style="edgeStyle=orthogonalEdgeStyle;curved=1;rounded=0;orthogonalLoop=1;jettySize=auto;html=1;dashed=1;" parent="1" source="ztKS8xKdU01Fj72BsQWo-19" target="ztKS8xKdU01Fj72BsQWo-29" edge="1">
          <mxGeometry relative="1" as="geometry" />
        </mxCell>
        <mxCell id="ztKS8xKdU01Fj72BsQWo-19" value="引擎层" style="shape=umlFrame;whiteSpace=wrap;html=1;fillColor=#f8cecc;strokeColor=#b85450;swimlaneFillColor=default;" parent="1" vertex="1">
          <mxGeometry x="169" y="660" width="520" height="200" as="geometry" />
        </mxCell>
        <mxCell id="ztKS8xKdU01Fj72BsQWo-11" style="edgeStyle=orthogonalEdgeStyle;curved=1;rounded=0;orthogonalLoop=1;jettySize=auto;html=1;exitX=0.5;exitY=1;exitDx=0;exitDy=0;entryX=0.5;entryY=0;entryDx=0;entryDy=0;" parent="1" source="ztKS8xKdU01Fj72BsQWo-1" target="ztKS8xKdU01Fj72BsQWo-10" edge="1">
          <mxGeometry relative="1" as="geometry" />
        </mxCell>
        <mxCell id="ztKS8xKdU01Fj72BsQWo-1" value="Client" style="ellipse;whiteSpace=wrap;html=1;fillColor=#d5e8d4;strokeColor=#82b366;" parent="1" vertex="1">
          <mxGeometry x="354" y="70" width="120" height="80" as="geometry" />
        </mxCell>
        <mxCell id="ztKS8xKdU01Fj72BsQWo-2" value="" style="outlineConnect=0;dashed=0;verticalLabelPosition=bottom;verticalAlign=top;align=center;html=1;shape=mxgraph.aws3.cache_node;fillColor=#2E73B8;gradientColor=none;" parent="1" vertex="1">
          <mxGeometry x="230" y="325" width="90" height="80" as="geometry" />
        </mxCell>
        <mxCell id="ztKS8xKdU01Fj72BsQWo-8" style="edgeStyle=orthogonalEdgeStyle;curved=1;rounded=0;orthogonalLoop=1;jettySize=auto;html=1;exitX=0.5;exitY=1;exitDx=0;exitDy=0;" parent="1" source="ztKS8xKdU01Fj72BsQWo-4" target="ztKS8xKdU01Fj72BsQWo-5" edge="1">
          <mxGeometry relative="1" as="geometry" />
        </mxCell>
        <mxCell id="ztKS8xKdU01Fj72BsQWo-24" style="edgeStyle=orthogonalEdgeStyle;curved=1;rounded=0;orthogonalLoop=1;jettySize=auto;html=1;exitX=1;exitY=0.5;exitDx=0;exitDy=0;dashed=1;" parent="1" source="ztKS8xKdU01Fj72BsQWo-4" target="ztKS8xKdU01Fj72BsQWo-23" edge="1">
          <mxGeometry relative="1" as="geometry" />
        </mxCell>
        <mxCell id="ztKS8xKdU01Fj72BsQWo-4" value="词法分析器" style="rounded=1;whiteSpace=wrap;html=1;fillColor=#d5e8d4;strokeColor=#82b366;" parent="1" vertex="1">
          <mxGeometry x="490" y="325" width="120" height="60" as="geometry" />
        </mxCell>
        <mxCell id="ztKS8xKdU01Fj72BsQWo-9" style="edgeStyle=orthogonalEdgeStyle;curved=1;rounded=0;orthogonalLoop=1;jettySize=auto;html=1;exitX=0.5;exitY=1;exitDx=0;exitDy=0;" parent="1" source="ztKS8xKdU01Fj72BsQWo-5" target="ztKS8xKdU01Fj72BsQWo-6" edge="1">
          <mxGeometry relative="1" as="geometry" />
        </mxCell>
        <mxCell id="ztKS8xKdU01Fj72BsQWo-26" style="edgeStyle=orthogonalEdgeStyle;curved=1;rounded=0;orthogonalLoop=1;jettySize=auto;html=1;exitX=1;exitY=0.5;exitDx=0;exitDy=0;dashed=1;" parent="1" source="ztKS8xKdU01Fj72BsQWo-5" target="ztKS8xKdU01Fj72BsQWo-25" edge="1">
          <mxGeometry relative="1" as="geometry" />
        </mxCell>
        <mxCell id="ztKS8xKdU01Fj72BsQWo-5" value="优化器" style="rounded=1;whiteSpace=wrap;html=1;fillColor=#e1d5e7;strokeColor=#9673a6;" parent="1" vertex="1">
          <mxGeometry x="490" y="425" width="120" height="60" as="geometry" />
        </mxCell>
        <mxCell id="ztKS8xKdU01Fj72BsQWo-28" style="edgeStyle=orthogonalEdgeStyle;curved=1;rounded=0;orthogonalLoop=1;jettySize=auto;html=1;exitX=1;exitY=0.5;exitDx=0;exitDy=0;entryX=0;entryY=0.5;entryDx=0;entryDy=0;entryPerimeter=0;dashed=1;" parent="1" source="ztKS8xKdU01Fj72BsQWo-6" target="ztKS8xKdU01Fj72BsQWo-27" edge="1">
          <mxGeometry relative="1" as="geometry" />
        </mxCell>
        <mxCell id="ztKS8xKdU01Fj72BsQWo-6" value="执行器" style="rounded=1;whiteSpace=wrap;html=1;fillColor=#ffe6cc;strokeColor=#d79b00;" parent="1" vertex="1">
          <mxGeometry x="490" y="525" width="120" height="60" as="geometry" />
        </mxCell>
        <mxCell id="ztKS8xKdU01Fj72BsQWo-12" style="edgeStyle=orthogonalEdgeStyle;curved=1;rounded=0;orthogonalLoop=1;jettySize=auto;html=1;exitX=0.5;exitY=1;exitDx=0;exitDy=0;" parent="1" source="ztKS8xKdU01Fj72BsQWo-10" target="ztKS8xKdU01Fj72BsQWo-2" edge="1">
          <mxGeometry relative="1" as="geometry" />
        </mxCell>
        <mxCell id="ztKS8xKdU01Fj72BsQWo-13" style="edgeStyle=orthogonalEdgeStyle;curved=1;rounded=0;orthogonalLoop=1;jettySize=auto;html=1;exitX=0.5;exitY=1;exitDx=0;exitDy=0;" parent="1" source="ztKS8xKdU01Fj72BsQWo-10" target="ztKS8xKdU01Fj72BsQWo-4" edge="1">
          <mxGeometry relative="1" as="geometry" />
        </mxCell>
        <mxCell id="ztKS8xKdU01Fj72BsQWo-22" style="edgeStyle=orthogonalEdgeStyle;curved=1;rounded=0;orthogonalLoop=1;jettySize=auto;html=1;exitX=1;exitY=0.5;exitDx=0;exitDy=0;entryX=0;entryY=0.5;entryDx=0;entryDy=0;entryPerimeter=0;dashed=1;" parent="1" source="ztKS8xKdU01Fj72BsQWo-10" target="ztKS8xKdU01Fj72BsQWo-21" edge="1">
          <mxGeometry relative="1" as="geometry" />
        </mxCell>
        <mxCell id="ztKS8xKdU01Fj72BsQWo-10" value="连接器" style="rounded=1;whiteSpace=wrap;html=1;fillColor=#dae8fc;strokeColor=#6c8ebf;" parent="1" vertex="1">
          <mxGeometry x="354" y="210" width="120" height="60" as="geometry" />
        </mxCell>
        <mxCell id="ztKS8xKdU01Fj72BsQWo-14" value="InnoDB" style="sketch=0;aspect=fixed;html=1;points=[];align=center;image;fontSize=12;image=img/lib/mscae/Cache_including_Redis.svg;" parent="1" vertex="1">
          <mxGeometry x="259" y="710" width="70" height="70" as="geometry" />
        </mxCell>
        <mxCell id="ztKS8xKdU01Fj72BsQWo-15" value="MyISAM" style="sketch=0;aspect=fixed;html=1;points=[];align=center;image;fontSize=12;image=img/lib/mscae/Cache_including_Redis.svg;" parent="1" vertex="1">
          <mxGeometry x="404" y="710" width="70" height="70" as="geometry" />
        </mxCell>
        <mxCell id="ztKS8xKdU01Fj72BsQWo-18" value="Memory" style="sketch=0;aspect=fixed;html=1;points=[];align=center;image;fontSize=12;image=img/lib/mscae/Cache_including_Redis.svg;" parent="1" vertex="1">
          <mxGeometry x="550" y="710" width="70" height="70" as="geometry" />
        </mxCell>
        <mxCell id="ztKS8xKdU01Fj72BsQWo-21" value="管理连接&lt;br&gt;权限校验" style="shape=note;whiteSpace=wrap;html=1;backgroundOutline=1;darkOpacity=0.05;fillColor=#fff2cc;strokeColor=#d6b656;size=22;" parent="1" vertex="1">
          <mxGeometry x="790" y="205" width="170" height="70" as="geometry" />
        </mxCell>
        <mxCell id="ztKS8xKdU01Fj72BsQWo-23" value="词法分析&lt;br&gt;语法分析" style="shape=note;whiteSpace=wrap;html=1;backgroundOutline=1;darkOpacity=0.05;fillColor=#fff2cc;strokeColor=#d6b656;size=22;" parent="1" vertex="1">
          <mxGeometry x="790" y="320" width="170" height="70" as="geometry" />
        </mxCell>
        <mxCell id="ztKS8xKdU01Fj72BsQWo-25" value="执行计划生成&lt;br&gt;索引选择" style="shape=note;whiteSpace=wrap;html=1;backgroundOutline=1;darkOpacity=0.05;fillColor=#fff2cc;strokeColor=#d6b656;size=22;" parent="1" vertex="1">
          <mxGeometry x="790" y="420" width="170" height="70" as="geometry" />
        </mxCell>
        <mxCell id="ztKS8xKdU01Fj72BsQWo-27" value="调用引擎&lt;br&gt;获取结果" style="shape=note;whiteSpace=wrap;html=1;backgroundOutline=1;darkOpacity=0.05;fillColor=#fff2cc;strokeColor=#d6b656;size=22;" parent="1" vertex="1">
          <mxGeometry x="790" y="520" width="170" height="70" as="geometry" />
        </mxCell>
        <mxCell id="ztKS8xKdU01Fj72BsQWo-29" value="读取磁盘&lt;br&gt;数据结构化存储" style="shape=note;whiteSpace=wrap;html=1;backgroundOutline=1;darkOpacity=0.05;fillColor=#fff2cc;strokeColor=#d6b656;size=22;" parent="1" vertex="1">
          <mxGeometry x="790" y="725" width="170" height="70" as="geometry" />
        </mxCell>
        <mxCell id="ztKS8xKdU01Fj72BsQWo-33" style="edgeStyle=orthogonalEdgeStyle;curved=1;rounded=0;orthogonalLoop=1;jettySize=auto;html=1;exitX=0.5;exitY=1;exitDx=0;exitDy=0;entryX=0.5;entryY=0;entryDx=0;entryDy=0;" parent="1" source="ztKS8xKdU01Fj72BsQWo-31" target="ztKS8xKdU01Fj72BsQWo-32" edge="1">
          <mxGeometry relative="1" as="geometry" />
        </mxCell>
        <mxCell id="ztKS8xKdU01Fj72BsQWo-31" value="SQL" style="ellipse;whiteSpace=wrap;html=1;aspect=fixed;fillColor=#d5e8d4;strokeColor=#82b366;" parent="1" vertex="1">
          <mxGeometry x="350" y="1000" width="80" height="80" as="geometry" />
        </mxCell>
        <mxCell id="ztKS8xKdU01Fj72BsQWo-35" value="" style="edgeStyle=orthogonalEdgeStyle;curved=1;rounded=0;orthogonalLoop=1;jettySize=auto;html=1;" parent="1" source="ztKS8xKdU01Fj72BsQWo-32" target="ztKS8xKdU01Fj72BsQWo-34" edge="1">
          <mxGeometry relative="1" as="geometry" />
        </mxCell>
        <mxCell id="ztKS8xKdU01Fj72BsQWo-32" value="词法分析" style="rounded=1;whiteSpace=wrap;html=1;fillColor=#dae8fc;strokeColor=#6c8ebf;" parent="1" vertex="1">
          <mxGeometry x="330" y="1140" width="120" height="60" as="geometry" />
        </mxCell>
        <mxCell id="ztKS8xKdU01Fj72BsQWo-42" style="edgeStyle=orthogonalEdgeStyle;curved=1;rounded=0;orthogonalLoop=1;jettySize=auto;html=1;exitX=1;exitY=0.5;exitDx=0;exitDy=0;entryX=1;entryY=0.5;entryDx=0;entryDy=0;dashed=1;" parent="1" source="ztKS8xKdU01Fj72BsQWo-34" target="ztKS8xKdU01Fj72BsQWo-36" edge="1">
          <mxGeometry relative="1" as="geometry">
            <Array as="points">
              <mxPoint x="550" y="1280" />
              <mxPoint x="550" y="1390" />
            </Array>
          </mxGeometry>
        </mxCell>
        <mxCell id="ztKS8xKdU01Fj72BsQWo-43" value="分析机分析 Token" style="edgeLabel;html=1;align=center;verticalAlign=middle;resizable=0;points=[];" parent="ztKS8xKdU01Fj72BsQWo-42" vertex="1" connectable="0">
          <mxGeometry x="-0.0086" relative="1" as="geometry">
            <mxPoint y="1" as="offset" />
          </mxGeometry>
        </mxCell>
        <mxCell id="ztKS8xKdU01Fj72BsQWo-34" value="语法分析" style="whiteSpace=wrap;html=1;rounded=1;fillColor=#dae8fc;strokeColor=#6c8ebf;" parent="1" vertex="1">
          <mxGeometry x="330" y="1250" width="120" height="60" as="geometry" />
        </mxCell>
        <mxCell id="ztKS8xKdU01Fj72BsQWo-39" value="" style="edgeStyle=orthogonalEdgeStyle;curved=1;rounded=0;orthogonalLoop=1;jettySize=auto;html=1;" parent="1" source="ztKS8xKdU01Fj72BsQWo-36" target="ztKS8xKdU01Fj72BsQWo-38" edge="1">
          <mxGeometry relative="1" as="geometry" />
        </mxCell>
        <mxCell id="ztKS8xKdU01Fj72BsQWo-44" style="edgeStyle=orthogonalEdgeStyle;curved=1;rounded=0;orthogonalLoop=1;jettySize=auto;html=1;exitX=0;exitY=0.5;exitDx=0;exitDy=0;entryX=0;entryY=0.5;entryDx=0;entryDy=0;dashed=1;" parent="1" source="ztKS8xKdU01Fj72BsQWo-36" target="ztKS8xKdU01Fj72BsQWo-34" edge="1">
          <mxGeometry relative="1" as="geometry">
            <Array as="points">
              <mxPoint x="230" y="1390" />
              <mxPoint x="230" y="1280" />
            </Array>
          </mxGeometry>
        </mxCell>
        <mxCell id="ztKS8xKdU01Fj72BsQWo-45" value="未分析出语法（语法错误 ）" style="edgeLabel;html=1;align=center;verticalAlign=middle;resizable=0;points=[];" parent="ztKS8xKdU01Fj72BsQWo-44" vertex="1" connectable="0">
          <mxGeometry x="-0.0027" y="-1" relative="1" as="geometry">
            <mxPoint y="1" as="offset" />
          </mxGeometry>
        </mxCell>
        <mxCell id="ztKS8xKdU01Fj72BsQWo-36" value="分析机" style="whiteSpace=wrap;html=1;rounded=1;fillColor=#dae8fc;strokeColor=#6c8ebf;" parent="1" vertex="1">
          <mxGeometry x="330" y="1360" width="120" height="60" as="geometry" />
        </mxCell>
        <mxCell id="ztKS8xKdU01Fj72BsQWo-41" style="edgeStyle=orthogonalEdgeStyle;curved=1;rounded=0;orthogonalLoop=1;jettySize=auto;html=1;exitX=0.5;exitY=1;exitDx=0;exitDy=0;" parent="1" source="ztKS8xKdU01Fj72BsQWo-38" target="ztKS8xKdU01Fj72BsQWo-40" edge="1">
          <mxGeometry relative="1" as="geometry" />
        </mxCell>
        <mxCell id="ztKS8xKdU01Fj72BsQWo-38" value="AsTree" style="whiteSpace=wrap;html=1;rounded=1;fillColor=#fff2cc;strokeColor=#d6b656;" parent="1" vertex="1">
          <mxGeometry x="330" y="1500" width="120" height="60" as="geometry" />
        </mxCell>
        <mxCell id="ztKS8xKdU01Fj72BsQWo-40" value="结束" style="ellipse;whiteSpace=wrap;html=1;aspect=fixed;fillColor=#f8cecc;strokeColor=#b85450;" parent="1" vertex="1">
          <mxGeometry x="350" y="1620" width="80" height="80" as="geometry" />
        </mxCell>
        <mxCell id="ztKS8xKdU01Fj72BsQWo-46" value="终结符、非终结符" style="whiteSpace=wrap;html=1;shape=partialRectangle;top=0;left=0;bottom=1;right=0;points=[[0,1],[1,1]];fillColor=#fff2cc;align=center;verticalAlign=bottom;routingCenterY=0.5;snapToPoint=1;recursiveResize=0;autosize=1;treeFolding=1;treeMoving=1;newEdgeStyle={&quot;edgeStyle&quot;:&quot;entityRelationEdgeStyle&quot;,&quot;startArrow&quot;:&quot;none&quot;,&quot;endArrow&quot;:&quot;none&quot;,&quot;segment&quot;:10,&quot;curved&quot;:1};strokeColor=#d6b656;" parent="1" vertex="1">
          <mxGeometry x="485" y="1090" width="130" height="20" as="geometry" />
        </mxCell>
        <mxCell id="ztKS8xKdU01Fj72BsQWo-47" value="" style="edgeStyle=entityRelationEdgeStyle;startArrow=none;endArrow=none;segment=10;curved=1;rounded=0;fontColor=#000000;dashed=1;exitX=0.75;exitY=0;exitDx=0;exitDy=0;" parent="1" source="ztKS8xKdU01Fj72BsQWo-32" target="ztKS8xKdU01Fj72BsQWo-46" edge="1">
          <mxGeometry relative="1" as="geometry">
            <mxPoint x="540" y="1180" as="sourcePoint" />
          </mxGeometry>
        </mxCell>
        <mxCell id="ztKS8xKdU01Fj72BsQWo-48" value="由独立的模块组成&lt;br&gt;相当于一个 List 循环解析 Token" style="whiteSpace=wrap;html=1;shape=partialRectangle;top=0;left=0;bottom=1;right=0;points=[[0,1],[1,1]];fillColor=#fff2cc;align=center;verticalAlign=bottom;routingCenterY=0.5;snapToPoint=1;recursiveResize=0;autosize=1;treeFolding=1;treeMoving=1;newEdgeStyle={&quot;edgeStyle&quot;:&quot;entityRelationEdgeStyle&quot;,&quot;startArrow&quot;:&quot;none&quot;,&quot;endArrow&quot;:&quot;none&quot;,&quot;segment&quot;:10,&quot;curved&quot;:1};strokeColor=#d6b656;" parent="1" vertex="1">
          <mxGeometry x="90" y="1440" width="200" height="30" as="geometry" />
        </mxCell>
        <mxCell id="ztKS8xKdU01Fj72BsQWo-49" value="" style="edgeStyle=entityRelationEdgeStyle;startArrow=none;endArrow=none;segment=10;curved=1;rounded=0;fontColor=#000000;dashed=1;exitX=0;exitY=1;exitDx=0;exitDy=0;" parent="1" source="ztKS8xKdU01Fj72BsQWo-36" target="ztKS8xKdU01Fj72BsQWo-48" edge="1">
          <mxGeometry relative="1" as="geometry">
            <mxPoint x="110" y="1470" as="sourcePoint" />
          </mxGeometry>
        </mxCell>
        <mxCell id="zfDDjMkD-GZpdLnreVfR-3" value="" style="edgeStyle=orthogonalEdgeStyle;rounded=0;orthogonalLoop=1;jettySize=auto;html=1;" parent="1" source="zfDDjMkD-GZpdLnreVfR-1" target="zfDDjMkD-GZpdLnreVfR-2" edge="1">
          <mxGeometry relative="1" as="geometry" />
        </mxCell>
        <mxCell id="zfDDjMkD-GZpdLnreVfR-4" value="1、地区、性别、年龄、身高、爱好&lt;br&gt;2、按受欢迎程度排序&lt;br&gt;3、分页" style="edgeLabel;html=1;align=center;verticalAlign=middle;resizable=0;points=[];" parent="zfDDjMkD-GZpdLnreVfR-3" vertex="1" connectable="0">
          <mxGeometry x="-0.3769" y="1" relative="1" as="geometry">
            <mxPoint x="-1" y="19" as="offset" />
          </mxGeometry>
        </mxCell>
        <mxCell id="zfDDjMkD-GZpdLnreVfR-9" style="edgeStyle=orthogonalEdgeStyle;rounded=0;orthogonalLoop=1;jettySize=auto;html=1;exitX=1;exitY=0.5;exitDx=0;exitDy=0;entryX=0.5;entryY=0;entryDx=0;entryDy=0;" parent="1" source="zfDDjMkD-GZpdLnreVfR-1" target="zfDDjMkD-GZpdLnreVfR-8" edge="1">
          <mxGeometry relative="1" as="geometry" />
        </mxCell>
        <mxCell id="zfDDjMkD-GZpdLnreVfR-10" value="再设计一个辅助联合索引&lt;br&gt;满足另外一种情况" style="edgeLabel;html=1;align=center;verticalAlign=middle;resizable=0;points=[];" parent="zfDDjMkD-GZpdLnreVfR-9" vertex="1" connectable="0">
          <mxGeometry x="0.6912" relative="1" as="geometry">
            <mxPoint as="offset" />
          </mxGeometry>
        </mxCell>
        <mxCell id="zfDDjMkD-GZpdLnreVfR-1" value="社交 APP&lt;br&gt;用户筛选" style="rounded=1;whiteSpace=wrap;html=1;fillColor=#dae8fc;strokeColor=#6c8ebf;" parent="1" vertex="1">
          <mxGeometry x="1445" y="520" width="120" height="60" as="geometry" />
        </mxCell>
        <mxCell id="zfDDjMkD-GZpdLnreVfR-6" value="" style="edgeStyle=orthogonalEdgeStyle;rounded=0;orthogonalLoop=1;jettySize=auto;html=1;" parent="1" source="zfDDjMkD-GZpdLnreVfR-2" target="zfDDjMkD-GZpdLnreVfR-5" edge="1">
          <mxGeometry relative="1" as="geometry" />
        </mxCell>
        <mxCell id="zfDDjMkD-GZpdLnreVfR-7" value="按地区、性别筛选" style="edgeLabel;html=1;align=center;verticalAlign=middle;resizable=0;points=[];" parent="zfDDjMkD-GZpdLnreVfR-6" vertex="1" connectable="0">
          <mxGeometry x="-0.05" y="2" relative="1" as="geometry">
            <mxPoint as="offset" />
          </mxGeometry>
        </mxCell>
        <mxCell id="zfDDjMkD-GZpdLnreVfR-2" value="select * from user where x=x and y=y order by z limit 10" style="whiteSpace=wrap;html=1;rounded=1;fillColor=#d5e8d4;strokeColor=#82b366;" parent="1" vertex="1">
          <mxGeometry x="1295" y="710" width="420" height="60" as="geometry" />
        </mxCell>
        <mxCell id="zfDDjMkD-GZpdLnreVfR-14" value="" style="edgeStyle=orthogonalEdgeStyle;rounded=0;orthogonalLoop=1;jettySize=auto;html=1;" parent="1" source="zfDDjMkD-GZpdLnreVfR-5" target="zfDDjMkD-GZpdLnreVfR-13" edge="1">
          <mxGeometry relative="1" as="geometry" />
        </mxCell>
        <mxCell id="zfDDjMkD-GZpdLnreVfR-5" value="where province = xx and city=yy and sex = ‘female&#39;" style="whiteSpace=wrap;html=1;rounded=1;fillColor=#d5e8d4;strokeColor=#82b366;" parent="1" vertex="1">
          <mxGeometry x="1335" y="850" width="340" height="60" as="geometry" />
        </mxCell>
        <mxCell id="zfDDjMkD-GZpdLnreVfR-12" value="" style="edgeStyle=orthogonalEdgeStyle;rounded=0;orthogonalLoop=1;jettySize=auto;html=1;" parent="1" source="zfDDjMkD-GZpdLnreVfR-8" target="zfDDjMkD-GZpdLnreVfR-11" edge="1">
          <mxGeometry relative="1" as="geometry" />
        </mxCell>
        <mxCell id="zfDDjMkD-GZpdLnreVfR-8" value="where sex = &#39;female&#39; order by score limit xx, xx" style="whiteSpace=wrap;html=1;rounded=1;fillColor=#d5e8d4;strokeColor=#82b366;" parent="1" vertex="1">
          <mxGeometry x="1765" y="710" width="420" height="60" as="geometry" />
        </mxCell>
        <mxCell id="zfDDjMkD-GZpdLnreVfR-11" value="idx(sex, score)" style="whiteSpace=wrap;html=1;rounded=1;fillColor=#f5f5f5;strokeColor=#666666;fontStyle=1;fontColor=#333333;" parent="1" vertex="1">
          <mxGeometry x="1915" y="820" width="120" height="60" as="geometry" />
        </mxCell>
        <mxCell id="zfDDjMkD-GZpdLnreVfR-16" value="" style="edgeStyle=orthogonalEdgeStyle;rounded=0;orthogonalLoop=1;jettySize=auto;html=1;" parent="1" source="zfDDjMkD-GZpdLnreVfR-13" target="zfDDjMkD-GZpdLnreVfR-15" edge="1">
          <mxGeometry relative="1" as="geometry" />
        </mxCell>
        <mxCell id="zfDDjMkD-GZpdLnreVfR-27" value="发现查询大多会使用 age 来过滤" style="edgeLabel;html=1;align=center;verticalAlign=middle;resizable=0;points=[];fontColor=#000000;" parent="zfDDjMkD-GZpdLnreVfR-16" vertex="1" connectable="0">
          <mxGeometry x="-0.1167" relative="1" as="geometry">
            <mxPoint y="1" as="offset" />
          </mxGeometry>
        </mxCell>
        <mxCell id="zfDDjMkD-GZpdLnreVfR-13" value="idx(province, city, sex)" style="whiteSpace=wrap;html=1;rounded=1;fillColor=#f5f5f5;strokeColor=#666666;fontStyle=1;fontColor=#333333;" parent="1" vertex="1">
          <mxGeometry x="1415" y="970" width="180" height="60" as="geometry" />
        </mxCell>
        <mxCell id="zfDDjMkD-GZpdLnreVfR-18" value="" style="edgeStyle=orthogonalEdgeStyle;rounded=0;orthogonalLoop=1;jettySize=auto;html=1;" parent="1" source="zfDDjMkD-GZpdLnreVfR-15" target="zfDDjMkD-GZpdLnreVfR-17" edge="1">
          <mxGeometry relative="1" as="geometry" />
        </mxCell>
        <mxCell id="zfDDjMkD-GZpdLnreVfR-19" value="把 age 加入索引" style="edgeLabel;html=1;align=center;verticalAlign=middle;resizable=0;points=[];" parent="zfDDjMkD-GZpdLnreVfR-18" vertex="1" connectable="0">
          <mxGeometry x="0.0143" y="2" relative="1" as="geometry">
            <mxPoint as="offset" />
          </mxGeometry>
        </mxCell>
        <mxCell id="zfDDjMkD-GZpdLnreVfR-15" value="where province = xx and city = yy and age &amp;gt;= xx and age &amp;lt;= xx" style="whiteSpace=wrap;html=1;rounded=1;fillColor=#d5e8d4;strokeColor=#82b366;" parent="1" vertex="1">
          <mxGeometry x="1300" y="1090" width="410" height="60" as="geometry" />
        </mxCell>
        <mxCell id="zfDDjMkD-GZpdLnreVfR-21" value="" style="edgeStyle=orthogonalEdgeStyle;rounded=0;orthogonalLoop=1;jettySize=auto;html=1;" parent="1" source="zfDDjMkD-GZpdLnreVfR-17" target="zfDDjMkD-GZpdLnreVfR-20" edge="1">
          <mxGeometry relative="1" as="geometry" />
        </mxCell>
        <mxCell id="zfDDjMkD-GZpdLnreVfR-24" value="优化 SQL 语句" style="edgeLabel;html=1;align=center;verticalAlign=middle;resizable=0;points=[];fontColor=#000000;" parent="zfDDjMkD-GZpdLnreVfR-21" vertex="1" connectable="0">
          <mxGeometry x="-0.1714" y="-1" relative="1" as="geometry">
            <mxPoint as="offset" />
          </mxGeometry>
        </mxCell>
        <mxCell id="zfDDjMkD-GZpdLnreVfR-17" value="&lt;span style=&quot;font-weight: 700;&quot;&gt;idx(province, city, sex, &lt;font color=&quot;#ff0000&quot;&gt;age&lt;/font&gt;)&lt;/span&gt;" style="whiteSpace=wrap;html=1;fillColor=#f5f5f5;strokeColor=#666666;rounded=1;fontColor=#333333;" parent="1" vertex="1">
          <mxGeometry x="1395" y="1230" width="220" height="60" as="geometry" />
        </mxCell>
        <mxCell id="zfDDjMkD-GZpdLnreVfR-31" value="" style="edgeStyle=orthogonalEdgeStyle;rounded=0;orthogonalLoop=1;jettySize=auto;html=1;fontColor=#000000;exitX=0.5;exitY=1;exitDx=0;exitDy=0;" parent="1" source="zfDDjMkD-GZpdLnreVfR-49" target="zfDDjMkD-GZpdLnreVfR-30" edge="1">
          <mxGeometry relative="1" as="geometry">
            <mxPoint x="1507.5000000000005" y="1630" as="sourcePoint" />
          </mxGeometry>
        </mxCell>
        <mxCell id="zfDDjMkD-GZpdLnreVfR-32" value="把 hobby 加入索引" style="edgeLabel;html=1;align=center;verticalAlign=middle;resizable=0;points=[];fontColor=#000000;" parent="zfDDjMkD-GZpdLnreVfR-31" vertex="1" connectable="0">
          <mxGeometry x="-0.0625" y="-2" relative="1" as="geometry">
            <mxPoint as="offset" />
          </mxGeometry>
        </mxCell>
        <mxCell id="zfDDjMkD-GZpdLnreVfR-50" value="" style="edgeStyle=orthogonalEdgeStyle;rounded=0;orthogonalLoop=1;jettySize=auto;html=1;fontColor=#FF0000;" parent="1" source="zfDDjMkD-GZpdLnreVfR-20" target="zfDDjMkD-GZpdLnreVfR-49" edge="1">
          <mxGeometry relative="1" as="geometry" />
        </mxCell>
        <mxCell id="zfDDjMkD-GZpdLnreVfR-20" value="where province = xx and city = yy and &lt;font color=&quot;#ff0000&quot;&gt;&lt;b&gt;sex in(&#39;male&#39;, &#39;female&#39;)&lt;/b&gt;&lt;/font&gt; and age &amp;gt;= xx and age &amp;lt;= xx" style="whiteSpace=wrap;html=1;fillColor=#d5e8d4;strokeColor=#82b366;rounded=1;" parent="1" vertex="1">
          <mxGeometry x="1250" y="1360" width="510" height="60" as="geometry" />
        </mxCell>
        <mxCell id="zfDDjMkD-GZpdLnreVfR-22" value="由于 age 经常用于范围查询&lt;br&gt;所以通常建立在索引的最后面" style="whiteSpace=wrap;html=1;shape=partialRectangle;top=0;left=0;bottom=1;right=0;points=[[0,1],[1,1]];fillColor=#fff2cc;align=center;verticalAlign=bottom;routingCenterY=0.5;snapToPoint=1;recursiveResize=0;autosize=1;treeFolding=1;treeMoving=1;newEdgeStyle={&quot;edgeStyle&quot;:&quot;entityRelationEdgeStyle&quot;,&quot;startArrow&quot;:&quot;none&quot;,&quot;endArrow&quot;:&quot;none&quot;,&quot;segment&quot;:10,&quot;curved&quot;:1};strokeColor=#d6b656;" parent="1" vertex="1">
          <mxGeometry x="1625" y="1180" width="190" height="30" as="geometry" />
        </mxCell>
        <mxCell id="zfDDjMkD-GZpdLnreVfR-23" value="" style="edgeStyle=entityRelationEdgeStyle;startArrow=none;endArrow=none;segment=10;curved=1;rounded=0;fontColor=#000000;exitX=0.75;exitY=0;exitDx=0;exitDy=0;" parent="1" source="zfDDjMkD-GZpdLnreVfR-17" target="zfDDjMkD-GZpdLnreVfR-22" edge="1">
          <mxGeometry relative="1" as="geometry">
            <mxPoint x="1735" y="1200" as="sourcePoint" />
          </mxGeometry>
        </mxCell>
        <mxCell id="zfDDjMkD-GZpdLnreVfR-25" value="加入了伪 sex 的条件，满足了索引要求" style="whiteSpace=wrap;html=1;shape=partialRectangle;top=0;left=0;bottom=1;right=0;points=[[0,1],[1,1]];fillColor=#fff2cc;align=center;verticalAlign=bottom;routingCenterY=0.5;snapToPoint=1;recursiveResize=0;autosize=1;treeFolding=1;treeMoving=1;newEdgeStyle={&quot;edgeStyle&quot;:&quot;entityRelationEdgeStyle&quot;,&quot;startArrow&quot;:&quot;none&quot;,&quot;endArrow&quot;:&quot;none&quot;,&quot;segment&quot;:10,&quot;curved&quot;:1};strokeColor=#d6b656;" parent="1" vertex="1">
          <mxGeometry x="1670" y="1300" width="240" height="20" as="geometry" />
        </mxCell>
        <mxCell id="zfDDjMkD-GZpdLnreVfR-26" value="" style="edgeStyle=entityRelationEdgeStyle;startArrow=none;endArrow=none;segment=10;curved=1;rounded=0;fontColor=#000000;exitX=0.75;exitY=0;exitDx=0;exitDy=0;" parent="1" source="zfDDjMkD-GZpdLnreVfR-20" target="zfDDjMkD-GZpdLnreVfR-25" edge="1">
          <mxGeometry relative="1" as="geometry">
            <mxPoint x="1715" y="1320" as="sourcePoint" />
          </mxGeometry>
        </mxCell>
        <mxCell id="zfDDjMkD-GZpdLnreVfR-28" value="这条语句其实只能用到索引的前两个字段&lt;br&gt;不能完全应用到索引" style="whiteSpace=wrap;html=1;shape=partialRectangle;top=0;left=0;bottom=1;right=0;points=[[0,1],[1,1]];fillColor=#fff2cc;align=center;verticalAlign=bottom;routingCenterY=0.5;snapToPoint=1;recursiveResize=0;autosize=1;treeFolding=1;treeMoving=1;newEdgeStyle={&quot;edgeStyle&quot;:&quot;entityRelationEdgeStyle&quot;,&quot;startArrow&quot;:&quot;none&quot;,&quot;endArrow&quot;:&quot;none&quot;,&quot;segment&quot;:10,&quot;curved&quot;:1};strokeColor=#d6b656;" parent="1" vertex="1">
          <mxGeometry x="1655" y="1030" width="250" height="30" as="geometry" />
        </mxCell>
        <mxCell id="zfDDjMkD-GZpdLnreVfR-29" value="" style="edgeStyle=entityRelationEdgeStyle;startArrow=none;endArrow=none;segment=10;curved=1;rounded=0;fontColor=#000000;exitX=0.75;exitY=0;exitDx=0;exitDy=0;" parent="1" source="zfDDjMkD-GZpdLnreVfR-15" target="zfDDjMkD-GZpdLnreVfR-28" edge="1">
          <mxGeometry relative="1" as="geometry">
            <mxPoint x="1705" y="1050" as="sourcePoint" />
          </mxGeometry>
        </mxCell>
        <mxCell id="zfDDjMkD-GZpdLnreVfR-36" value="" style="edgeStyle=orthogonalEdgeStyle;rounded=0;orthogonalLoop=1;jettySize=auto;html=1;fontColor=#000000;" parent="1" source="zfDDjMkD-GZpdLnreVfR-30" target="zfDDjMkD-GZpdLnreVfR-35" edge="1">
          <mxGeometry relative="1" as="geometry" />
        </mxCell>
        <mxCell id="zfDDjMkD-GZpdLnreVfR-37" value="查询一周内登陆的用户&amp;nbsp;" style="edgeLabel;html=1;align=center;verticalAlign=middle;resizable=0;points=[];fontColor=#000000;" parent="zfDDjMkD-GZpdLnreVfR-36" vertex="1" connectable="0">
          <mxGeometry x="-0.2375" relative="1" as="geometry">
            <mxPoint as="offset" />
          </mxGeometry>
        </mxCell>
        <mxCell id="zfDDjMkD-GZpdLnreVfR-30" value="&lt;span style=&quot;color: rgb(51, 51, 51); font-weight: 700;&quot;&gt;idx(province, city, sex,&lt;/span&gt;&lt;font color=&quot;#000000&quot;&gt;&lt;span style=&quot;font-weight: 700;&quot;&gt;&amp;nbsp;&lt;/span&gt;&lt;/font&gt;&lt;span style=&quot;color: rgb(255, 0, 0); font-weight: 700;&quot;&gt;hobby(20),&amp;nbsp;&lt;/span&gt;&lt;font color=&quot;#000000&quot;&gt;&lt;font style=&quot;font-weight: 700;&quot;&gt;age&lt;/font&gt;&lt;/font&gt;&lt;span style=&quot;color: rgb(51, 51, 51); font-weight: 700;&quot;&gt;)&lt;/span&gt;" style="whiteSpace=wrap;html=1;fillColor=#f5f5f5;strokeColor=#666666;rounded=1;fontColor=#333333;" parent="1" vertex="1">
          <mxGeometry x="1342.5" y="1710" width="330" height="60" as="geometry" />
        </mxCell>
        <mxCell id="zfDDjMkD-GZpdLnreVfR-33" value="由于 hobby 字段比较大，我们通常可以使用前 20 个字符做索引&lt;br&gt;查询到时候使用 like &#39;xx%&#39; 做匹配" style="whiteSpace=wrap;html=1;shape=partialRectangle;top=0;left=0;bottom=1;right=0;points=[[0,1],[1,1]];fillColor=#fff2cc;align=center;verticalAlign=bottom;routingCenterY=0.5;snapToPoint=1;recursiveResize=0;autosize=1;treeFolding=1;treeMoving=1;newEdgeStyle={&quot;edgeStyle&quot;:&quot;entityRelationEdgeStyle&quot;,&quot;startArrow&quot;:&quot;none&quot;,&quot;endArrow&quot;:&quot;none&quot;,&quot;segment&quot;:10,&quot;curved&quot;:1};strokeColor=#d6b656;" parent="1" vertex="1">
          <mxGeometry x="1627.5" y="1660" width="370" height="30" as="geometry" />
        </mxCell>
        <mxCell id="zfDDjMkD-GZpdLnreVfR-34" value="" style="edgeStyle=entityRelationEdgeStyle;startArrow=none;endArrow=none;segment=10;curved=1;rounded=0;fontColor=#000000;exitX=0.721;exitY=0.008;exitDx=0;exitDy=0;exitPerimeter=0;" parent="1" source="zfDDjMkD-GZpdLnreVfR-30" target="zfDDjMkD-GZpdLnreVfR-33" edge="1">
          <mxGeometry relative="1" as="geometry">
            <mxPoint x="1647.5" y="1700" as="sourcePoint" />
          </mxGeometry>
        </mxCell>
        <mxCell id="zfDDjMkD-GZpdLnreVfR-39" style="edgeStyle=orthogonalEdgeStyle;rounded=0;orthogonalLoop=1;jettySize=auto;html=1;exitX=0.5;exitY=1;exitDx=0;exitDy=0;fontColor=#000000;" parent="1" source="zfDDjMkD-GZpdLnreVfR-35" target="zfDDjMkD-GZpdLnreVfR-38" edge="1">
          <mxGeometry relative="1" as="geometry" />
        </mxCell>
        <mxCell id="zfDDjMkD-GZpdLnreVfR-35" value="&lt;font color=&quot;#000000&quot;&gt;where province = xx and city = yy and&amp;nbsp;sex in(&#39;male&#39;, &#39;female&#39;)&amp;nbsp;and hobby like &#39;xx%&#39; and age &amp;gt;= xx and age &amp;lt;= xx and &lt;/font&gt;&lt;b style=&quot;&quot;&gt;&lt;font color=&quot;#ff0000&quot;&gt;login_time &amp;gt; xxx&lt;/font&gt;&lt;/b&gt;" style="whiteSpace=wrap;html=1;fillColor=#d5e8d4;strokeColor=#82b366;rounded=1;" parent="1" vertex="1">
          <mxGeometry x="1073.75" y="1850" width="867.5" height="60" as="geometry" />
        </mxCell>
        <mxCell id="zfDDjMkD-GZpdLnreVfR-43" value="" style="edgeStyle=orthogonalEdgeStyle;rounded=0;orthogonalLoop=1;jettySize=auto;html=1;fontColor=#FF0000;" parent="1" source="zfDDjMkD-GZpdLnreVfR-38" target="zfDDjMkD-GZpdLnreVfR-42" edge="1">
          <mxGeometry relative="1" as="geometry" />
        </mxCell>
        <mxCell id="zfDDjMkD-GZpdLnreVfR-38" value="&lt;span style=&quot;color: rgb(0, 0, 0); font-weight: 700;&quot;&gt;idx(province, city, sex,&lt;/span&gt;&lt;span style=&quot;color: rgb(0, 0, 0); font-weight: 700;&quot;&gt;&amp;nbsp;&lt;/span&gt;&lt;span style=&quot;color: rgb(0, 0, 0); font-weight: 700;&quot;&gt;hobby(20),&amp;nbsp;&lt;/span&gt;&lt;font style=&quot;font-weight: 700;&quot;&gt;&lt;font color=&quot;#000000&quot;&gt;age, &lt;/font&gt;&lt;font color=&quot;#ff0000&quot;&gt;login_time&lt;/font&gt;&lt;/font&gt;&lt;span style=&quot;color: rgb(0, 0, 0); font-weight: 700;&quot;&gt;)&lt;/span&gt;" style="whiteSpace=wrap;html=1;fillColor=#f5f5f5;strokeColor=#666666;rounded=1;fontColor=#333333;" parent="1" vertex="1">
          <mxGeometry x="1342.5" y="2010" width="330" height="60" as="geometry" />
        </mxCell>
        <mxCell id="zfDDjMkD-GZpdLnreVfR-40" value="出现了问题，因为 login_time 也是范围查找&lt;br&gt;所以不能完全使用到索引" style="whiteSpace=wrap;html=1;shape=partialRectangle;top=0;left=0;bottom=1;right=0;points=[[0,1],[1,1]];fillColor=#fff2cc;align=center;verticalAlign=bottom;routingCenterY=0.5;snapToPoint=1;recursiveResize=0;autosize=1;treeFolding=1;treeMoving=1;newEdgeStyle={&quot;edgeStyle&quot;:&quot;entityRelationEdgeStyle&quot;,&quot;startArrow&quot;:&quot;none&quot;,&quot;endArrow&quot;:&quot;none&quot;,&quot;segment&quot;:10,&quot;curved&quot;:1};strokeColor=#d6b656;" parent="1" vertex="1">
          <mxGeometry x="1662.5" y="1950" width="260" height="30" as="geometry" />
        </mxCell>
        <mxCell id="zfDDjMkD-GZpdLnreVfR-41" value="" style="edgeStyle=entityRelationEdgeStyle;startArrow=none;endArrow=none;segment=10;curved=1;rounded=0;fontColor=#000000;exitX=0.75;exitY=0;exitDx=0;exitDy=0;" parent="1" source="zfDDjMkD-GZpdLnreVfR-38" target="zfDDjMkD-GZpdLnreVfR-40" edge="1">
          <mxGeometry relative="1" as="geometry">
            <mxPoint x="1722.5" y="1980" as="sourcePoint" />
          </mxGeometry>
        </mxCell>
        <mxCell id="zfDDjMkD-GZpdLnreVfR-47" value="" style="edgeStyle=orthogonalEdgeStyle;rounded=0;orthogonalLoop=1;jettySize=auto;html=1;fontColor=#FF0000;" parent="1" source="zfDDjMkD-GZpdLnreVfR-42" target="zfDDjMkD-GZpdLnreVfR-46" edge="1">
          <mxGeometry relative="1" as="geometry" />
        </mxCell>
        <mxCell id="zfDDjMkD-GZpdLnreVfR-48" value="最终的 SQL 语句" style="edgeLabel;html=1;align=center;verticalAlign=middle;resizable=0;points=[];fontColor=#FF0000;" parent="zfDDjMkD-GZpdLnreVfR-47" vertex="1" connectable="0">
          <mxGeometry x="-0.1944" y="-3" relative="1" as="geometry">
            <mxPoint as="offset" />
          </mxGeometry>
        </mxCell>
        <mxCell id="zfDDjMkD-GZpdLnreVfR-42" value="&lt;span style=&quot;color: rgb(0, 0, 0); font-weight: 700;&quot;&gt;idx(province, city, sex,&lt;/span&gt;&lt;span style=&quot;color: rgb(0, 0, 0); font-weight: 700;&quot;&gt;&amp;nbsp;&lt;/span&gt;&lt;span style=&quot;color: rgb(0, 0, 0); font-weight: 700;&quot;&gt;hobby(20),&amp;nbsp;&lt;/span&gt;&lt;span style=&quot;color: rgb(255, 0, 0); font-weight: 700;&quot;&gt;is_login_7_day,&amp;nbsp;&lt;/span&gt;&lt;font style=&quot;font-weight: 700;&quot;&gt;&lt;font color=&quot;#000000&quot;&gt;age&lt;/font&gt;&lt;/font&gt;&lt;span style=&quot;color: rgb(0, 0, 0); font-weight: 700;&quot;&gt;)&lt;/span&gt;" style="whiteSpace=wrap;html=1;fillColor=#f5f5f5;strokeColor=#666666;fontColor=#333333;rounded=1;" parent="1" vertex="1">
          <mxGeometry x="1295" y="2150" width="425" height="60" as="geometry" />
        </mxCell>
        <mxCell id="zfDDjMkD-GZpdLnreVfR-44" value="增加一个字段，用来记录 7 天内是否登录过" style="whiteSpace=wrap;html=1;shape=partialRectangle;top=0;left=0;bottom=1;right=0;points=[[0,1],[1,1]];fillColor=#fff2cc;align=center;verticalAlign=bottom;routingCenterY=0.5;snapToPoint=1;recursiveResize=0;autosize=1;treeFolding=1;treeMoving=1;newEdgeStyle={&quot;edgeStyle&quot;:&quot;entityRelationEdgeStyle&quot;,&quot;startArrow&quot;:&quot;none&quot;,&quot;endArrow&quot;:&quot;none&quot;,&quot;segment&quot;:10,&quot;curved&quot;:1};strokeColor=#d6b656;" parent="1" vertex="1">
          <mxGeometry x="1682.5" y="2100" width="260" height="20" as="geometry" />
        </mxCell>
        <mxCell id="zfDDjMkD-GZpdLnreVfR-45" value="" style="edgeStyle=entityRelationEdgeStyle;startArrow=none;endArrow=none;segment=10;curved=1;rounded=0;fontColor=#000000;exitX=0.75;exitY=0;exitDx=0;exitDy=0;" parent="1" source="zfDDjMkD-GZpdLnreVfR-42" target="zfDDjMkD-GZpdLnreVfR-44" edge="1">
          <mxGeometry relative="1" as="geometry">
            <mxPoint x="1732.5" y="2120" as="sourcePoint" />
          </mxGeometry>
        </mxCell>
        <mxCell id="zfDDjMkD-GZpdLnreVfR-46" value="&lt;font style=&quot;color: rgb(0, 0, 0);&quot; color=&quot;#000000&quot;&gt;where province = xx and city = yy and&amp;nbsp;sex in(&#39;male&#39;, &#39;female&#39;)&amp;nbsp;&lt;/font&gt;and hobby like &#39;xx%&#39;&amp;nbsp;&lt;font style=&quot;&quot;&gt;and &lt;b style=&quot;&quot;&gt;&lt;font color=&quot;#ff0000&quot;&gt;is_login_7_day = 1&lt;/font&gt;&lt;/b&gt; and age &amp;gt;= xx and age &amp;lt;= xx&lt;/font&gt;" style="whiteSpace=wrap;html=1;fillColor=#d5e8d4;strokeColor=#82b366;rounded=1;" parent="1" vertex="1">
          <mxGeometry x="1107.5" y="2280" width="800" height="60" as="geometry" />
        </mxCell>
        <mxCell id="zfDDjMkD-GZpdLnreVfR-49" value="where province = xx and city = yy and&amp;nbsp;sex in(&#39;male&#39;, &#39;female&#39;)&amp;nbsp;and &lt;font color=&quot;#ff0000&quot;&gt;&lt;b&gt;hobby like &#39;xx%&#39; &lt;/b&gt;&lt;/font&gt;and age &amp;gt;= xx and age &amp;lt;= xx" style="whiteSpace=wrap;html=1;fillColor=#d5e8d4;strokeColor=#82b366;rounded=1;" parent="1" vertex="1">
          <mxGeometry x="1163.75" y="1520" width="682.5" height="60" as="geometry" />
        </mxCell>
        <mxCell id="FJIHUCayccTJmZpPxnte-1" value="" style="edgeStyle=orthogonalEdgeStyle;rounded=0;orthogonalLoop=1;jettySize=auto;html=1;" edge="1" parent="1" source="FJIHUCayccTJmZpPxnte-2" target="FJIHUCayccTJmZpPxnte-3">
          <mxGeometry relative="1" as="geometry" />
        </mxCell>
        <mxCell id="FJIHUCayccTJmZpPxnte-2" value="Client 执行 SQL&lt;br&gt;update t set name = &#39;yyy&#39; where id = 1;" style="rounded=0;whiteSpace=wrap;html=1;fillColor=#dae8fc;strokeColor=#6c8ebf;" vertex="1" parent="1">
          <mxGeometry x="219" y="1870" width="266" height="60" as="geometry" />
        </mxCell>
        <mxCell id="FJIHUCayccTJmZpPxnte-5" value="" style="edgeStyle=orthogonalEdgeStyle;rounded=0;orthogonalLoop=1;jettySize=auto;html=1;" edge="1" parent="1" source="FJIHUCayccTJmZpPxnte-3" target="FJIHUCayccTJmZpPxnte-4">
          <mxGeometry relative="1" as="geometry" />
        </mxCell>
        <mxCell id="FJIHUCayccTJmZpPxnte-11" value="" style="edgeStyle=orthogonalEdgeStyle;rounded=0;orthogonalLoop=1;jettySize=auto;html=1;" edge="1" parent="1" source="FJIHUCayccTJmZpPxnte-3" target="FJIHUCayccTJmZpPxnte-10">
          <mxGeometry relative="1" as="geometry" />
        </mxCell>
        <mxCell id="FJIHUCayccTJmZpPxnte-17" style="edgeStyle=orthogonalEdgeStyle;rounded=0;orthogonalLoop=1;jettySize=auto;html=1;exitX=1;exitY=0.5;exitDx=0;exitDy=0;entryX=0;entryY=0.5;entryDx=0;entryDy=0;entryPerimeter=0;dashed=1;" edge="1" parent="1" source="FJIHUCayccTJmZpPxnte-3" target="FJIHUCayccTJmZpPxnte-13">
          <mxGeometry relative="1" as="geometry" />
        </mxCell>
        <mxCell id="FJIHUCayccTJmZpPxnte-3" value="连接器" style="whiteSpace=wrap;html=1;rounded=0;fillColor=#ffe6cc;strokeColor=#d79b00;" vertex="1" parent="1">
          <mxGeometry x="292" y="2010" width="120" height="60" as="geometry" />
        </mxCell>
        <mxCell id="FJIHUCayccTJmZpPxnte-7" value="" style="edgeStyle=orthogonalEdgeStyle;rounded=0;orthogonalLoop=1;jettySize=auto;html=1;" edge="1" parent="1" source="FJIHUCayccTJmZpPxnte-4" target="FJIHUCayccTJmZpPxnte-6">
          <mxGeometry relative="1" as="geometry" />
        </mxCell>
        <mxCell id="FJIHUCayccTJmZpPxnte-18" style="edgeStyle=orthogonalEdgeStyle;rounded=0;orthogonalLoop=1;jettySize=auto;html=1;exitX=1;exitY=0.5;exitDx=0;exitDy=0;entryX=0;entryY=0.5;entryDx=0;entryDy=0;entryPerimeter=0;dashed=1;" edge="1" parent="1" source="FJIHUCayccTJmZpPxnte-4" target="FJIHUCayccTJmZpPxnte-14">
          <mxGeometry relative="1" as="geometry" />
        </mxCell>
        <mxCell id="FJIHUCayccTJmZpPxnte-4" value="分析器" style="whiteSpace=wrap;html=1;rounded=0;fillColor=#ffe6cc;strokeColor=#d79b00;" vertex="1" parent="1">
          <mxGeometry x="292" y="2100" width="120" height="60" as="geometry" />
        </mxCell>
        <mxCell id="FJIHUCayccTJmZpPxnte-9" value="" style="edgeStyle=orthogonalEdgeStyle;rounded=0;orthogonalLoop=1;jettySize=auto;html=1;" edge="1" parent="1" source="FJIHUCayccTJmZpPxnte-6" target="FJIHUCayccTJmZpPxnte-8">
          <mxGeometry relative="1" as="geometry" />
        </mxCell>
        <mxCell id="FJIHUCayccTJmZpPxnte-19" style="edgeStyle=orthogonalEdgeStyle;rounded=0;orthogonalLoop=1;jettySize=auto;html=1;exitX=1;exitY=0.5;exitDx=0;exitDy=0;entryX=0;entryY=0.5;entryDx=0;entryDy=0;entryPerimeter=0;dashed=1;" edge="1" parent="1" source="FJIHUCayccTJmZpPxnte-6" target="FJIHUCayccTJmZpPxnte-15">
          <mxGeometry relative="1" as="geometry" />
        </mxCell>
        <mxCell id="FJIHUCayccTJmZpPxnte-6" value="优化器" style="whiteSpace=wrap;html=1;rounded=0;fillColor=#ffe6cc;strokeColor=#d79b00;" vertex="1" parent="1">
          <mxGeometry x="292" y="2190" width="120" height="60" as="geometry" />
        </mxCell>
        <mxCell id="FJIHUCayccTJmZpPxnte-30" style="edgeStyle=orthogonalEdgeStyle;rounded=0;orthogonalLoop=1;jettySize=auto;html=1;exitX=1;exitY=0.75;exitDx=0;exitDy=0;" edge="1" parent="1" source="FJIHUCayccTJmZpPxnte-8" target="FJIHUCayccTJmZpPxnte-25">
          <mxGeometry relative="1" as="geometry" />
        </mxCell>
        <mxCell id="FJIHUCayccTJmZpPxnte-54" value="【4】写 redo 日志" style="edgeLabel;html=1;align=center;verticalAlign=middle;resizable=0;points=[];" vertex="1" connectable="0" parent="FJIHUCayccTJmZpPxnte-30">
          <mxGeometry x="0.3782" relative="1" as="geometry">
            <mxPoint y="-25" as="offset" />
          </mxGeometry>
        </mxCell>
        <mxCell id="FJIHUCayccTJmZpPxnte-31" style="edgeStyle=orthogonalEdgeStyle;rounded=0;orthogonalLoop=1;jettySize=auto;html=1;exitX=0;exitY=0.75;exitDx=0;exitDy=0;entryX=0.5;entryY=0;entryDx=0;entryDy=0;" edge="1" parent="1" source="FJIHUCayccTJmZpPxnte-8" target="FJIHUCayccTJmZpPxnte-21">
          <mxGeometry relative="1" as="geometry" />
        </mxCell>
        <mxCell id="FJIHUCayccTJmZpPxnte-57" value="【3】更新内存数据" style="edgeLabel;html=1;align=center;verticalAlign=middle;resizable=0;points=[];" vertex="1" connectable="0" parent="FJIHUCayccTJmZpPxnte-31">
          <mxGeometry x="0.2125" y="-2" relative="1" as="geometry">
            <mxPoint as="offset" />
          </mxGeometry>
        </mxCell>
        <mxCell id="FJIHUCayccTJmZpPxnte-55" style="edgeStyle=orthogonalEdgeStyle;rounded=0;orthogonalLoop=1;jettySize=auto;html=1;exitX=1;exitY=0.5;exitDx=0;exitDy=0;entryX=0.5;entryY=0;entryDx=0;entryDy=0;" edge="1" parent="1" source="FJIHUCayccTJmZpPxnte-8" target="FJIHUCayccTJmZpPxnte-48">
          <mxGeometry relative="1" as="geometry">
            <mxPoint x="785" y="2650" as="targetPoint" />
          </mxGeometry>
        </mxCell>
        <mxCell id="FJIHUCayccTJmZpPxnte-56" value="【6】准备提交事物&lt;br&gt;binlog 日志写入磁盘" style="edgeLabel;html=1;align=center;verticalAlign=middle;resizable=0;points=[];" vertex="1" connectable="0" parent="FJIHUCayccTJmZpPxnte-55">
          <mxGeometry x="0.0262" y="-2" relative="1" as="geometry">
            <mxPoint y="1" as="offset" />
          </mxGeometry>
        </mxCell>
        <mxCell id="FJIHUCayccTJmZpPxnte-8" value="执行器" style="whiteSpace=wrap;html=1;rounded=0;fillColor=#d5e8d4;strokeColor=#82b366;" vertex="1" parent="1">
          <mxGeometry x="292" y="2280" width="120" height="60" as="geometry" />
        </mxCell>
        <mxCell id="FJIHUCayccTJmZpPxnte-10" value="查询缓存" style="whiteSpace=wrap;html=1;rounded=0;fillColor=#d5e8d4;strokeColor=#82b366;" vertex="1" parent="1">
          <mxGeometry x="92" y="2010" width="120" height="60" as="geometry" />
        </mxCell>
        <mxCell id="FJIHUCayccTJmZpPxnte-13" value="管理连接&lt;br&gt;权限校验" style="shape=note;whiteSpace=wrap;html=1;backgroundOutline=1;darkOpacity=0.05;fillColor=#fff2cc;strokeColor=#d6b656;size=22;" vertex="1" parent="1">
          <mxGeometry x="645" y="2017.5" width="170" height="45" as="geometry" />
        </mxCell>
        <mxCell id="FJIHUCayccTJmZpPxnte-14" value="词法分析&lt;br&gt;语法分析" style="shape=note;whiteSpace=wrap;html=1;backgroundOutline=1;darkOpacity=0.05;fillColor=#fff2cc;strokeColor=#d6b656;size=22;" vertex="1" parent="1">
          <mxGeometry x="645" y="2110" width="170" height="40" as="geometry" />
        </mxCell>
        <mxCell id="FJIHUCayccTJmZpPxnte-15" value="执行计划生成&lt;br&gt;索引选择" style="shape=note;whiteSpace=wrap;html=1;backgroundOutline=1;darkOpacity=0.05;fillColor=#fff2cc;strokeColor=#d6b656;size=22;" vertex="1" parent="1">
          <mxGeometry x="645" y="2200" width="170" height="40" as="geometry" />
        </mxCell>
        <mxCell id="FJIHUCayccTJmZpPxnte-46" style="edgeStyle=orthogonalEdgeStyle;rounded=0;orthogonalLoop=1;jettySize=auto;html=1;exitX=1;exitY=0.5;exitDx=0;exitDy=0;entryX=0.5;entryY=0;entryDx=0;entryDy=0;" edge="1" parent="1" source="FJIHUCayccTJmZpPxnte-25" target="FJIHUCayccTJmZpPxnte-45">
          <mxGeometry relative="1" as="geometry" />
        </mxCell>
        <mxCell id="FJIHUCayccTJmZpPxnte-47" value="【5】准备提交事物&lt;br&gt;redo 日志写入磁盘" style="edgeLabel;html=1;align=center;verticalAlign=middle;resizable=0;points=[];" vertex="1" connectable="0" parent="FJIHUCayccTJmZpPxnte-46">
          <mxGeometry x="0.2283" y="1" relative="1" as="geometry">
            <mxPoint as="offset" />
          </mxGeometry>
        </mxCell>
        <mxCell id="FJIHUCayccTJmZpPxnte-25" value="Redo Log&lt;br&gt;Buffer" style="rounded=0;whiteSpace=wrap;html=1;fillColor=#dae8fc;strokeColor=#6c8ebf;" vertex="1" parent="1">
          <mxGeometry x="412" y="2520" width="160" height="80" as="geometry" />
        </mxCell>
        <mxCell id="FJIHUCayccTJmZpPxnte-29" value="" style="group;fillColor=#dae8fc;strokeColor=#6c8ebf;" vertex="1" connectable="0" parent="1">
          <mxGeometry x="85" y="2520" width="230" height="140" as="geometry" />
        </mxCell>
        <mxCell id="FJIHUCayccTJmZpPxnte-21" value="" style="rounded=0;whiteSpace=wrap;html=1;fillColor=#dae8fc;strokeColor=#6c8ebf;" vertex="1" parent="FJIHUCayccTJmZpPxnte-29">
          <mxGeometry width="230" height="140" as="geometry" />
        </mxCell>
        <mxCell id="FJIHUCayccTJmZpPxnte-22" value="Buffer Pool&lt;br&gt;缓存池" style="text;html=1;strokeColor=none;fillColor=none;align=center;verticalAlign=middle;whiteSpace=wrap;rounded=0;" vertex="1" parent="FJIHUCayccTJmZpPxnte-29">
          <mxGeometry x="67.5" y="20" width="95" height="30" as="geometry" />
        </mxCell>
        <mxCell id="FJIHUCayccTJmZpPxnte-24" value="page&lt;br&gt;name = &#39;yyy&#39;&lt;br&gt;..." style="rounded=1;whiteSpace=wrap;html=1;fillColor=#ffe6cc;strokeColor=#d79b00;" vertex="1" parent="FJIHUCayccTJmZpPxnte-29">
          <mxGeometry x="55" y="60" width="120" height="60" as="geometry" />
        </mxCell>
        <mxCell id="FJIHUCayccTJmZpPxnte-38" style="edgeStyle=orthogonalEdgeStyle;rounded=0;orthogonalLoop=1;jettySize=auto;html=1;exitX=0.5;exitY=0;exitDx=0;exitDy=0;entryX=0.5;entryY=1;entryDx=0;entryDy=0;" edge="1" parent="1" source="FJIHUCayccTJmZpPxnte-34" target="FJIHUCayccTJmZpPxnte-21">
          <mxGeometry relative="1" as="geometry" />
        </mxCell>
        <mxCell id="FJIHUCayccTJmZpPxnte-39" value="【1】读取磁盘 ibd 文件&lt;br&gt;加载 id = 1 的记录所在的整页数据到缓存池" style="edgeLabel;html=1;align=center;verticalAlign=middle;resizable=0;points=[];" vertex="1" connectable="0" parent="FJIHUCayccTJmZpPxnte-38">
          <mxGeometry x="-0.12" y="1" relative="1" as="geometry">
            <mxPoint as="offset" />
          </mxGeometry>
        </mxCell>
        <mxCell id="FJIHUCayccTJmZpPxnte-34" value="" style="rounded=0;whiteSpace=wrap;html=1;fillColor=#f5f5f5;fontColor=#333333;strokeColor=#666666;" vertex="1" parent="1">
          <mxGeometry x="40" y="2860" width="320" height="140" as="geometry" />
        </mxCell>
        <mxCell id="FJIHUCayccTJmZpPxnte-35" value="磁盘文件（ibd）" style="text;html=1;strokeColor=none;fillColor=none;align=center;verticalAlign=middle;whiteSpace=wrap;rounded=0;" vertex="1" parent="1">
          <mxGeometry x="152.5" y="2880" width="95" height="30" as="geometry" />
        </mxCell>
        <mxCell id="FJIHUCayccTJmZpPxnte-36" value="page&lt;br&gt;name = &#39;xxx&#39;&lt;br&gt;..." style="rounded=1;whiteSpace=wrap;html=1;fillColor=#ffe6cc;strokeColor=#d79b00;" vertex="1" parent="1">
          <mxGeometry x="70" y="2923" width="120" height="60" as="geometry" />
        </mxCell>
        <mxCell id="FJIHUCayccTJmZpPxnte-37" value="page&lt;br&gt;..." style="rounded=1;whiteSpace=wrap;html=1;fillColor=#ffe6cc;strokeColor=#d79b00;" vertex="1" parent="1">
          <mxGeometry x="215" y="2923" width="120" height="60" as="geometry" />
        </mxCell>
        <mxCell id="FJIHUCayccTJmZpPxnte-42" style="edgeStyle=orthogonalEdgeStyle;rounded=0;orthogonalLoop=1;jettySize=auto;html=1;exitX=0.5;exitY=1;exitDx=0;exitDy=0;entryX=1;entryY=0.5;entryDx=0;entryDy=0;" edge="1" parent="1" source="FJIHUCayccTJmZpPxnte-40" target="FJIHUCayccTJmZpPxnte-34">
          <mxGeometry relative="1" as="geometry" />
        </mxCell>
        <mxCell id="FJIHUCayccTJmZpPxnte-44" value="【8】随机写入磁盘&lt;br&gt;以 page 为单位写入，这步做完磁盘的数据就被更新了" style="edgeLabel;html=1;align=center;verticalAlign=middle;resizable=0;points=[];" vertex="1" connectable="0" parent="FJIHUCayccTJmZpPxnte-42">
          <mxGeometry x="-0.3798" relative="1" as="geometry">
            <mxPoint y="17" as="offset" />
          </mxGeometry>
        </mxCell>
        <mxCell id="FJIHUCayccTJmZpPxnte-40" value="IO 线程" style="ellipse;whiteSpace=wrap;html=1;" vertex="1" parent="1">
          <mxGeometry x="395" y="2650" width="73" height="50" as="geometry" />
        </mxCell>
        <mxCell id="FJIHUCayccTJmZpPxnte-41" style="edgeStyle=orthogonalEdgeStyle;rounded=0;orthogonalLoop=1;jettySize=auto;html=1;exitX=1;exitY=0.75;exitDx=0;exitDy=0;entryX=0.5;entryY=0;entryDx=0;entryDy=0;" edge="1" parent="1" source="FJIHUCayccTJmZpPxnte-21" target="FJIHUCayccTJmZpPxnte-40">
          <mxGeometry relative="1" as="geometry" />
        </mxCell>
        <mxCell id="FJIHUCayccTJmZpPxnte-43" value="修改的数据" style="edgeLabel;html=1;align=center;verticalAlign=middle;resizable=0;points=[];" vertex="1" connectable="0" parent="FJIHUCayccTJmZpPxnte-41">
          <mxGeometry x="-0.3216" y="2" relative="1" as="geometry">
            <mxPoint y="1" as="offset" />
          </mxGeometry>
        </mxCell>
        <mxCell id="FJIHUCayccTJmZpPxnte-45" value="redo log 日志文件&lt;br&gt;InnoDB 引擎特有&lt;br&gt;&lt;br&gt;name = ‘yyy&#39;" style="rounded=0;whiteSpace=wrap;html=1;fillColor=#e1d5e7;strokeColor=#9673a6;" vertex="1" parent="1">
          <mxGeometry x="525" y="2900" width="150" height="80" as="geometry" />
        </mxCell>
        <mxCell id="FJIHUCayccTJmZpPxnte-72" style="edgeStyle=orthogonalEdgeStyle;rounded=0;orthogonalLoop=1;jettySize=auto;html=1;exitX=0.5;exitY=1;exitDx=0;exitDy=0;entryX=0.5;entryY=1;entryDx=0;entryDy=0;" edge="1" parent="1" source="FJIHUCayccTJmZpPxnte-48" target="FJIHUCayccTJmZpPxnte-45">
          <mxGeometry relative="1" as="geometry">
            <Array as="points">
              <mxPoint x="810" y="3030" />
              <mxPoint x="600" y="3030" />
            </Array>
          </mxGeometry>
        </mxCell>
        <mxCell id="FJIHUCayccTJmZpPxnte-73" value="【7】写入 commit 标记&lt;br&gt;到 redo 日志文件中&lt;br&gt;表示提交事物完成&lt;br&gt;该标记为了保证事物提交后&lt;br&gt;redo 与 binlog 数据一致" style="edgeLabel;html=1;align=center;verticalAlign=middle;resizable=0;points=[];" vertex="1" connectable="0" parent="FJIHUCayccTJmZpPxnte-72">
          <mxGeometry x="0.249" y="1" relative="1" as="geometry">
            <mxPoint x="34" as="offset" />
          </mxGeometry>
        </mxCell>
        <mxCell id="FJIHUCayccTJmZpPxnte-48" value="binlog 文件&lt;br&gt;属于 Server 层&lt;br&gt;&lt;br&gt;name = ‘yyy&#39;" style="rounded=0;whiteSpace=wrap;html=1;fillColor=#e1d5e7;strokeColor=#9673a6;" vertex="1" parent="1">
          <mxGeometry x="735" y="2903" width="150" height="80" as="geometry" />
        </mxCell>
        <mxCell id="FJIHUCayccTJmZpPxnte-58" value="undo&amp;nbsp;日志文件&lt;br&gt;InnoDB 引擎特有&lt;br&gt;&lt;br&gt;name = ‘xxx&#39;" style="rounded=0;whiteSpace=wrap;html=1;fillColor=#e1d5e7;strokeColor=#9673a6;" vertex="1" parent="1">
          <mxGeometry x="-195" y="2903" width="150" height="80" as="geometry" />
        </mxCell>
        <mxCell id="FJIHUCayccTJmZpPxnte-64" value="数据库的增删改查都是直接操作 Buffer Pool&lt;br&gt;Buffer Pool 一般设置为机器内存的 60% 左右" style="whiteSpace=wrap;html=1;shape=partialRectangle;top=0;left=0;bottom=1;right=0;points=[[0,1],[1,1]];fillColor=#fff2cc;align=center;verticalAlign=bottom;routingCenterY=0.5;snapToPoint=1;recursiveResize=0;autosize=1;treeFolding=1;treeMoving=1;newEdgeStyle={&quot;edgeStyle&quot;:&quot;entityRelationEdgeStyle&quot;,&quot;startArrow&quot;:&quot;none&quot;,&quot;endArrow&quot;:&quot;none&quot;,&quot;segment&quot;:10,&quot;curved&quot;:1};strokeColor=#d6b656;" vertex="1" parent="1">
          <mxGeometry x="-290" y="2380" width="270" height="30" as="geometry" />
        </mxCell>
        <mxCell id="FJIHUCayccTJmZpPxnte-65" value="" style="edgeStyle=entityRelationEdgeStyle;startArrow=none;endArrow=none;segment=10;curved=1;rounded=0;fontColor=#000000;exitX=0;exitY=0.25;exitDx=0;exitDy=0;" edge="1" target="FJIHUCayccTJmZpPxnte-64" parent="1" source="FJIHUCayccTJmZpPxnte-21">
          <mxGeometry relative="1" as="geometry">
            <mxPoint x="-235" y="2430" as="sourcePoint" />
          </mxGeometry>
        </mxCell>
        <mxCell id="FJIHUCayccTJmZpPxnte-66" value="如果事物提交失败需要回滚数据&lt;br&gt;可以用 undo 日志里面的数据&lt;br&gt;恢复 Buffer Pool 里的缓存数据" style="whiteSpace=wrap;html=1;shape=partialRectangle;top=0;left=0;bottom=1;right=0;points=[[0,1],[1,1]];fillColor=#fff2cc;align=center;verticalAlign=bottom;routingCenterY=0.5;snapToPoint=1;recursiveResize=0;autosize=1;treeFolding=1;treeMoving=1;newEdgeStyle={&quot;edgeStyle&quot;:&quot;entityRelationEdgeStyle&quot;,&quot;startArrow&quot;:&quot;none&quot;,&quot;endArrow&quot;:&quot;none&quot;,&quot;segment&quot;:10,&quot;curved&quot;:1};strokeColor=#d6b656;" vertex="1" parent="1">
          <mxGeometry x="-340" y="2800" width="200" height="50" as="geometry" />
        </mxCell>
        <mxCell id="FJIHUCayccTJmZpPxnte-67" value="" style="edgeStyle=entityRelationEdgeStyle;startArrow=none;endArrow=none;segment=10;curved=1;rounded=0;fontColor=#000000;exitX=0.25;exitY=0;exitDx=0;exitDy=0;" edge="1" parent="1" source="FJIHUCayccTJmZpPxnte-58">
          <mxGeometry relative="1" as="geometry">
            <mxPoint x="-375" y="2840" as="sourcePoint" />
            <mxPoint x="-205.66666666666652" y="2869.666666666667" as="targetPoint" />
          </mxGeometry>
        </mxCell>
        <mxCell id="FJIHUCayccTJmZpPxnte-68" value="如果事物提交成功&lt;br&gt;Buffer Pool 里的数据还没来得及写入磁盘&lt;br&gt;此时系统宕机了，可以利用 redo 日志恢复 Buffer Pool 里的缓存数据" style="whiteSpace=wrap;html=1;shape=partialRectangle;top=0;left=0;bottom=1;right=0;points=[[0,1],[1,1]];fillColor=#fff2cc;align=center;verticalAlign=bottom;routingCenterY=0.5;snapToPoint=1;recursiveResize=0;autosize=1;treeFolding=1;treeMoving=1;newEdgeStyle={&quot;edgeStyle&quot;:&quot;entityRelationEdgeStyle&quot;,&quot;startArrow&quot;:&quot;none&quot;,&quot;endArrow&quot;:&quot;none&quot;,&quot;segment&quot;:10,&quot;curved&quot;:1};strokeColor=#d6b656;" vertex="1" parent="1">
          <mxGeometry x="110" y="3060" width="390" height="50" as="geometry" />
        </mxCell>
        <mxCell id="FJIHUCayccTJmZpPxnte-69" value="" style="edgeStyle=entityRelationEdgeStyle;startArrow=none;endArrow=none;segment=10;curved=1;rounded=0;fontColor=#000000;exitX=0.25;exitY=1;exitDx=0;exitDy=0;" edge="1" target="FJIHUCayccTJmZpPxnte-68" parent="1" source="FJIHUCayccTJmZpPxnte-45">
          <mxGeometry relative="1" as="geometry">
            <mxPoint x="385" y="3090" as="sourcePoint" />
          </mxGeometry>
        </mxCell>
        <mxCell id="FJIHUCayccTJmZpPxnte-70" value="binlog 主要用于恢复&lt;br&gt;数据库磁盘里的数据" style="whiteSpace=wrap;html=1;shape=partialRectangle;top=0;left=0;bottom=1;right=0;points=[[0,1],[1,1]];fillColor=#fff2cc;align=center;verticalAlign=bottom;routingCenterY=0.5;snapToPoint=1;recursiveResize=0;autosize=1;treeFolding=1;treeMoving=1;newEdgeStyle={&quot;edgeStyle&quot;:&quot;entityRelationEdgeStyle&quot;,&quot;startArrow&quot;:&quot;none&quot;,&quot;endArrow&quot;:&quot;none&quot;,&quot;segment&quot;:10,&quot;curved&quot;:1};strokeColor=#d6b656;" vertex="1" parent="1">
          <mxGeometry x="870" y="2840" width="140" height="30" as="geometry" />
        </mxCell>
        <mxCell id="FJIHUCayccTJmZpPxnte-71" value="" style="edgeStyle=entityRelationEdgeStyle;startArrow=none;endArrow=none;segment=10;curved=1;rounded=0;fontColor=#000000;exitX=0.75;exitY=0;exitDx=0;exitDy=0;" edge="1" target="FJIHUCayccTJmZpPxnte-70" parent="1" source="FJIHUCayccTJmZpPxnte-48">
          <mxGeometry relative="1" as="geometry">
            <mxPoint x="715" y="3110" as="sourcePoint" />
          </mxGeometry>
        </mxCell>
      </root>
    </mxGraphModel>
  </diagram>
</mxfile>
